<?xml version="1.0" encoding="UTF-8"?>
<!-- Generator: Adobe Illustrator 19.1.0, SVG Export Plug-In . SVG Version: 6.00 Build 0)  -->
<svg version="1.1" id="Logo" xmlns="http://www.w3.org/2000/svg" xmlns:xlink="http://www.w3.org/1999/xlink" x="0px" y="0px" viewBox="0 0 308.2 94.2" style="enable-background:new 0 0 308.2 94.2;" xml:space="preserve">
<style type="text/css">
	.st0{fill:#00345E;}
	.st1{fill-rule:evenodd;clip-rule:evenodd;fill:#00345E;}
	.st2{fill-rule:evenodd;clip-rule:evenodd;fill:#0067AC;}
	.st3{fill-rule:evenodd;clip-rule:evenodd;fill:#0089CF;}
	.st4{fill-rule:evenodd;clip-rule:evenodd;fill:#00B7E7;}
	.st5{fill-rule:evenodd;clip-rule:evenodd;fill:#6DCFF6;}
	.st6{fill-rule:evenodd;clip-rule:evenodd;fill:#ABE1FA;}
</style>
<g>
	<path class="st0" d="M95.5,52.2h3.5v27.9h11.5V83H95.5V52.2z"/>
	<path class="st0" d="M113.6,71.7c0-6.7,3.7-11.4,9.1-11.4c5.6,0,8.8,4.4,8.8,11.4v0.8h-14.4c0.1,4.5,2.7,8,7.4,8   c2.1,0,3.9-0.7,5.4-1.5l1.1,2.4c-1.9,1.3-4.6,2-7.1,2C117,83.5,113.6,78.2,113.6,71.7z M127.8,69.9c0-3.4-1.7-6.7-5.2-6.7   c-3.4,0-5.5,3-5.5,6.7H127.8z"/>
	<path class="st0" d="M150.4,80.5c-1.7,1.6-3.9,2.9-6.6,2.9c-4,0-7-2.6-7-6.8c0-2.9,1.5-5,3.7-6c1.5-0.8,3.3-1,5.5-1.1l4.2-0.1v-1.4   c0-3.4-2-4.9-4.8-4.9c-2.7,0-4.5,0.9-6.1,1.8l-1.3-2.4c2.6-1.6,5.3-2.2,7.8-2.2c4.6,0,7.9,2.2,7.9,7.5v7.6c0,4.3,0.1,6.4,0.4,7.5   h-3L150.4,80.5z M146.4,72.2c-1.9,0-3.2,0.3-4.2,0.8c-1.3,0.7-1.9,2-1.9,3.4c0,2.4,1.6,4.1,4.1,4.1c2.8,0,4.8-1.8,5.8-2.9v-5.6   L146.4,72.2z"/>
	<path class="st0" d="M161.9,60.9h2.9l0.4,2.8c2.4-2.7,4.3-3.4,6.2-3.4c0.9,0,1.8,0.2,2.4,0.6l-1.2,3.1c-0.6-0.3-1.1-0.5-1.9-0.5   c-1.6,0-3.2,1-5.3,3.2V83h-3.5V60.9z"/>
	<path class="st0" d="M178.8,60.9h2.9l0.4,2.9c2.4-2.1,4.9-3.4,7.8-3.4c3.5,0,6.5,2.2,6.5,7.8V83H193V69.3c0-3.3-0.8-5.8-4-5.8   c-2.5,0-4.7,1.5-6.8,3.3V83h-3.5V60.9z"/>
	<path class="st0" d="M204.1,53.6c0-1.3,0.9-2.3,2.3-2.3c1.4,0,2.3,1,2.3,2.3c0,1.3-1,2.3-2.3,2.3C205,55.9,204.1,54.9,204.1,53.6z    M204.7,60.9h3.4V83h-3.4V60.9z"/>
	<path class="st0" d="M216.3,60.9h2.9l0.4,2.9c2.4-2.1,4.9-3.4,7.8-3.4c3.5,0,6.5,2.2,6.5,7.8V83h-3.4V69.3c0-3.3-0.8-5.8-4-5.8   c-2.5,0-4.7,1.5-6.8,3.3V83h-3.5V60.9z"/>
	<path class="st0" d="M239.8,87.8c0-2.2,1.3-4.4,4.1-5.7c-1-0.6-1.6-1.6-1.6-2.8c0-1,0.4-2.6,2.3-4.4c-2.1-1.4-3.4-3.7-3.4-6.7   c0-4.4,3.4-7.9,8.1-7.9c1.9,0,3.2,0.4,4.2,0.8c0.2,0.1,0.3,0.1,0.5,0c1.1-1.1,2.5-1.8,4.5-1.8c0.6,0,1.1,0.1,1.4,0.1l-0.8,2.7   c-0.4-0.1-0.8-0.1-1.3-0.1c-0.7,0-1.5,0.2-2.2,0.6c1.7,1.5,2.5,3.6,2.5,5.7c0,4.8-3.5,8-8.6,8c-1.1,0-2.1-0.2-2.9-0.5   c-0.8,0.9-1.2,1.7-1.2,2.5c0,4.4,14.6,0.5,14.6,8.8c0,4.2-4.1,6.9-10.7,6.9C243.6,94.1,239.8,91.8,239.8,87.8z M256.7,87.6   c0-4-6.6-3.3-10.7-4.5c-1.1,0.7-3,2-3,4.2c0,2.7,2.8,4.2,6.8,4.2C254.4,91.4,256.7,89.7,256.7,87.6z M254.7,68.3   c0-2.9-2.1-5.1-5-5.1c-2.9,0-5,2-5,5.1c0,3,1.9,5.2,5,5.2C252.5,73.5,254.7,71.7,254.7,68.3z"/>
	<path class="st0" d="M115.9,37.5c-3,1.6-6,2.2-8.9,2.2c-9.6,0-15.2-6.7-15.2-16.1c0-9.3,6.4-16.7,15.9-16.7c3.4,0,6.3,0.8,7.9,1.7   v3.4c-2.2-1.2-4.6-2-7.9-2c-7.5,0-12.1,5.7-12.1,13.3c0,7.8,4.5,13.3,11.8,13.3c3,0,5.4-0.8,7.6-2L115.9,37.5z"/>
	<path class="st0" d="M126.8,7.2h15.4l-1.1,3h-10.7v11.1h10.5v3h-10.5v11.9h12.1v3h-15.7V7.2z"/>
	<path class="st0" d="M154.3,7.2h3.4l14.9,19.4c2,2.7,3.5,4.9,4.6,6.5h0.1c0-1.7-0.1-3.2-0.1-5.6V7.2h3.6v32h-3L162.4,19   c-1.9-2.5-3.4-4.6-4.5-6.2h-0.1c0.1,1.6,0.1,3,0.1,5.5v20.9h-3.6V7.2z"/>
	<path class="st0" d="M212.8,26.1h-7.6l-1.1-3h12.2v14.2c-2.1,1.1-6,2.4-10.5,2.4c-9.5,0-15.8-6.7-15.8-16c0-9.8,6.6-16.7,16.5-16.7   c3.7,0,6.8,0.9,8.7,1.7v3.4c-2.3-1.2-5.1-2-8.5-2c-8.3,0-12.9,5.5-12.9,13.3c0,8.2,4.9,13.3,12.4,13.3c2.7,0,5.1-0.6,6.5-1.3V26.1z   "/>
	<path class="st0" d="M235,7.1h2.4l12.2,32.1h-3.8l-3.2-8.6h-12.8l-3.2,8.6h-3.8L235,7.1z M241.6,27.6l-3.4-9.2   c-1-2.8-1.5-4.3-1.9-5.5h-0.1c-0.3,1.2-0.9,2.7-1.9,5.5l-3.3,9.2H241.6z"/>
	<path class="st0" d="M278.3,26.1h-7.6l-1.1-3h12.2v14.2c-2.1,1.1-6,2.4-10.5,2.4c-9.5,0-15.8-6.7-15.8-16c0-9.8,6.6-16.7,16.5-16.7   c3.7,0,6.8,0.9,8.7,1.7v3.4c-2.3-1.2-5.1-2-8.5-2c-8.3,0-12.9,5.5-12.9,13.3c0,8.2,4.9,13.3,12.4,13.3c2.7,0,5.1-0.6,6.5-1.3V26.1z   "/>
	<path class="st0" d="M292.5,7.2h15.4l-1.1,3h-10.7v11.1h10.5v3h-10.5v11.9h12.1v3h-15.7V7.2z"/>
	<g>
		<path class="st0" d="M261.9,63c0-1.9,1.5-3.4,3.3-3.4c1.9,0,3.4,1.5,3.4,3.4c0,1.9-1.5,3.4-3.4,3.4    C263.4,66.4,261.9,64.9,261.9,63z M267.9,63c0-1.6-1.1-2.7-2.6-2.7c-1.5,0-2.6,1.1-2.6,2.7c0,1.6,1.1,2.7,2.6,2.7    C266.8,65.7,267.9,64.6,267.9,63z M264,61.1h1.3c0.9,0,1.3,0.4,1.3,1.1c0,0.6-0.4,0.9-0.9,1c0.1,0.1,0.3,0.3,0.5,0.6l0.7,1.1H266    l-0.7-1.2c-0.2-0.3-0.3-0.4-0.5-0.4v1.5H264V61.1z M265.1,62.7c0.4,0,0.6-0.1,0.6-0.5c0-0.3-0.2-0.5-0.6-0.5h-0.4v1H265.1z"/>
	</g>
</g>
<g>
	<path class="st1" d="M16.6,13l11.1,3.8l-1.8,8.9l-15.4-5.2l3.8-6.5C14.9,13,15.6,12.7,16.6,13z"/>
	<path class="st2" d="M0.9,41.2l9.7-8.5l7.5,6.6L4.7,51l-4.2-7.2C-0.1,42.8,0.1,41.9,0.9,41.2z"/>
	<path class="st3" d="M18.3,70.2l-2.8-13.9l10.4-3.5l3.8,19.3h-9.1C19.2,72.1,18.5,71.4,18.3,70.2z"/>
	<path class="st4" d="M53.9,69.6l-14.8-5l2.4-11.8L62,59.7l-5,8.7C56.2,69.7,55.2,70.1,53.9,69.6z"/>
	<path class="st5" d="M72.2,36.7L59.3,48l-10-8.8l17.9-15.7l5.5,9.6C73.6,34.6,73.4,35.7,72.2,36.7z"/>
	<path class="st6" d="M51.7,2.5L55.4,21l-13.8,4.7L36.4,0.1h12.2C50.4,0.1,51.4,0.9,51.7,2.5z"/>
</g>
</svg>